<svg version="1.1" viewBox="0.0 0.0 620.6456692913385 620.6456692913385" fill="none" stroke="none" stroke-linecap="square" stroke-miterlimit="10" xmlns:xlink="http://www.w3.org/1999/xlink" xmlns="http://www.w3.org/2000/svg"><clipPath id="p.0"><path d="m0 0l620.6457 0l0 620.6457l-620.6457 0l0 -620.6457z" clip-rule="nonzero"/></clipPath><g clip-path="url(#p.0)"><path fill="#000000" fill-opacity="0.0" d="m0 0l620.6457 0l0 620.6457l-620.6457 0z" fill-rule="evenodd"/><path fill="#1b1f23" d="m0 196.03217l0 0c0 -108.26557 87.766594 -196.03217 196.03217 -196.03217l228.56558 0l0 0c51.990967 0 101.85251 20.65333 138.61569 57.416492c36.763123 36.763165 57.416504 86.62471 57.416504 138.61568l0 228.56558l0 0c0 108.265594 -87.7666 196.0322 -196.0322 196.0322l-228.56558 0c-108.26557 0 -196.03217 -87.7666 -196.03217 -196.0322z" fill-rule="evenodd"/><path fill="#000000" fill-opacity="0.0" d="m-22.27559 31.440945l665.19684 0l0 557.7638l-665.19684 0z" fill-rule="evenodd"/><path fill="#fcf6bd" d="m259.21973 479.44092l-55.531235 0l-31.734375 -180.35938l-34.53125 180.35938l-54.125 0l-44.796875 -245.6875l40.125 0l31.265625 221.42188l39.203125 -190.15625l46.4375 0l37.09375 190.15625l31.26561 -221.42188l38.265625 0l-42.9375 245.6875zm225.39996 -321.29688l0 311.96875l-39.203125 0l0 -269.5l-73.734375 44.796875l-17.03125 -28.0l95.671875 -59.265625l34.296875 0zm67.203125 289.32812l0 31.96875l-185.5 0l0 -31.96875l185.5 0z" fill-rule="nonzero"/></g></svg>